<?xml version="1.0" standalone="no"?>
<!DOCTYPE svg PUBLIC "-//W3C//DTD SVG 20010904//EN"
 "http://www.w3.org/TR/2001/REC-SVG-20010904/DTD/svg10.dtd">
<svg version="1.0" xmlns="http://www.w3.org/2000/svg"
 width="500.000000pt" height="500.000000pt" viewBox="0 0 500.000000 500.000000"
 preserveAspectRatio="xMidYMid meet">
<metadata>
Created by potrace 1.11, written by Peter Selinger 2001-2013
</metadata>
<g transform="translate(0.000000,500.000000) scale(0.100000,-0.100000)"
fill="#000000" stroke="none">
<path d="M1814 4594 c-82 -86 -165 -173 -184 -193 -19 -21 -80 -95 -134 -165
-54 -70 -104 -133 -110 -140 -6 -6 -26 -30 -44 -54 l-33 -42 52 -77 c89 -133
207 -296 240 -333 17 -19 47 -53 67 -75 32 -35 269 -299 297 -331 9 -11 45 17
190 147 22 20 71 63 108 94 38 32 83 71 100 86 l31 28 -122 117 c-67 64 -122
119 -122 123 0 3 11 20 25 36 55 69 235 319 235 328 0 5 -40 57 -88 116 -48
58 -148 193 -221 299 -73 105 -134 192 -135 192 -2 0 -70 -70 -152 -156z"/>
<path d="M2895 4559 c-71 -101 -169 -235 -218 -297 -49 -62 -87 -118 -84 -126
3 -7 65 -93 137 -191 127 -171 131 -178 114 -194 -11 -10 -70 -61 -131 -115
-62 -54 -113 -100 -113 -102 0 -4 98 -99 220 -214 21 -19 72 -68 115 -109 74
-70 79 -73 92 -55 8 10 21 28 31 39 222 260 579 719 598 770 8 21 -168 246
-394 505 -108 123 -206 235 -217 248 l-21 24 -129 -183z"/>
<path d="M2438 3967 c-30 -34 -70 -88 -88 -120 l-32 -57 30 -38 c17 -21 57
-59 89 -84 l59 -46 96 81 95 81 -46 75 c-45 72 -125 171 -140 171 -4 0 -32
-28 -63 -63z"/>
<path d="M3744 3497 c-144 -117 -277 -225 -295 -240 -19 -15 -84 -67 -146
-115 -62 -48 -112 -90 -113 -93 0 -6 132 -162 215 -253 6 -6 25 -29 44 -51 19
-22 50 -57 69 -79 l34 -39 50 54 c90 98 180 189 187 189 4 0 32 -18 62 -40 30
-23 63 -48 74 -56 11 -8 63 -46 115 -85 52 -39 101 -73 107 -76 20 -8 208 119
406 275 100 79 188 149 196 157 11 11 8 18 -24 47 -21 18 -43 38 -49 43 -12
11 -295 259 -391 342 -33 28 -107 92 -165 142 -58 50 -107 91 -110 90 -3 0
-123 -95 -266 -212z"/>
<path d="M984 3617 c-28 -18 -66 -46 -85 -63 -19 -18 -113 -100 -209 -184
-444 -387 -410 -355 -391 -371 106 -90 325 -255 437 -332 l142 -95 188 139
189 140 25 -29 c94 -110 120 -140 162 -186 l48 -51 71 75 c39 41 101 107 138
145 191 200 188 195 167 211 -20 14 -78 62 -156 128 -25 21 -54 45 -65 55 -30
24 -136 112 -165 138 -50 44 -415 306 -430 309 -8 2 -38 -11 -66 -29z"/>
<path d="M2370 3354 c-122 -101 -159 -133 -256 -225 l-62 -58 31 -43 c17 -24
34 -45 37 -48 3 -3 30 -39 60 -80 30 -41 88 -115 130 -164 153 -181 153 -181
35 -80 -88 75 -189 151 -308 233 l-49 33 -41 -44 c-23 -25 -80 -85 -126 -134
-46 -49 -121 -128 -168 -176 l-84 -87 87 -110 c48 -61 135 -161 193 -221 l106
-110 131 98 c72 53 177 138 235 188 119 103 150 124 99 68 -19 -21 -38 -41
-41 -44 -14 -13 -141 -173 -156 -198 -10 -15 -42 -60 -71 -100 l-54 -74 24
-26 c177 -195 195 -212 311 -306 l107 -88 38 28 c20 16 44 34 52 41 8 7 43 34
77 61 56 44 96 81 230 210 31 30 42 47 35 55 -5 7 -54 73 -110 147 -55 74
-111 146 -124 160 -38 41 -124 144 -133 160 -5 8 36 -24 91 -71 100 -86 152
-126 277 -213 76 -53 64 -55 152 24 98 89 192 186 263 275 39 50 72 93 72 96
0 10 -184 235 -243 296 -30 32 -73 77 -95 100 l-40 43 -123 -90 c-67 -50 -134
-100 -149 -112 -14 -13 -55 -48 -90 -78 -36 -30 -69 -60 -75 -65 -26 -27 -65
-58 -65 -52 0 3 6 12 13 19 72 76 319 396 333 433 4 11 -184 216 -256 281 -47
42 -175 144 -180 144 -3 -1 -57 -44 -120 -96z"/>
<path d="M3749 2657 c-25 -23 -62 -62 -82 -87 l-35 -45 78 -90 c43 -49 83 -91
88 -93 15 -5 142 79 199 131 l52 49 -47 40 c-26 22 -58 50 -72 62 -29 25 -115
76 -127 76 -4 -1 -29 -20 -54 -43z"/>
<path d="M1185 2634 c-22 -19 -74 -58 -115 -86 -41 -28 -77 -53 -80 -55 -9 -8
128 -124 181 -153 31 -16 59 -30 62 -30 11 0 167 162 167 174 0 2 -16 21 -35
42 -19 22 -54 62 -77 91 -24 29 -47 52 -53 52 -5 0 -28 -16 -50 -35z"/>
<path d="M4019 2338 c-74 -55 -141 -105 -149 -111 -57 -44 -92 -69 -94 -66
-17 24 -222 255 -227 257 -6 3 -103 -94 -219 -218 -23 -25 -73 -77 -111 -117
l-69 -72 122 -98 c68 -53 186 -147 263 -208 219 -174 442 -345 450 -345 5 0
282 215 350 272 43 36 71 61 105 91 19 18 69 61 110 97 41 36 93 81 115 102
22 20 51 45 64 55 l24 20 -55 44 c-30 24 -70 56 -89 71 -19 14 -91 72 -161
127 -70 56 -164 123 -211 150 l-84 48 -134 -99z"/>
<path d="M742 2293 c-71 -60 -206 -160 -301 -223 l-172 -115 33 -30 c103 -93
233 -206 442 -385 16 -14 34 -30 40 -35 6 -6 58 -51 116 -100 58 -50 108 -94
111 -99 4 -5 13 -5 20 0 25 15 404 303 435 331 18 15 42 37 55 48 107 90 297
251 312 264 16 16 15 18 -16 51 -18 19 -89 100 -157 179 -69 80 -137 158 -151
173 l-26 29 -66 -68 c-36 -37 -88 -92 -115 -120 -27 -29 -52 -53 -56 -53 -6 0
-95 64 -275 197 -46 35 -88 63 -92 63 -4 0 -65 -48 -137 -107z"/>
<path d="M1969 1802 c-30 -38 -65 -84 -79 -102 -102 -136 -294 -380 -397 -507
-80 -98 -121 -157 -117 -165 10 -16 312 -391 349 -433 69 -79 131 -149 140
-159 6 -6 41 -46 77 -89 l68 -77 113 142 c63 79 162 213 220 299 l107 157
-139 186 -139 187 47 43 c25 23 82 73 126 111 44 37 82 73 84 78 2 6 -30 41
-70 79 -67 63 -138 131 -285 271 l-51 49 -54 -70z"/>
<path d="M3010 1793 c-25 -21 -61 -52 -80 -69 -19 -17 -91 -80 -160 -140 -69
-59 -124 -111 -123 -115 2 -7 35 -38 180 -176 l62 -58 -129 -174 c-71 -96
-131 -180 -134 -187 -5 -13 158 -261 233 -354 20 -25 41 -52 48 -60 7 -8 44
-55 83 -105 40 -49 73 -92 75 -93 3 -4 68 62 276 278 34 36 115 133 181 215
65 83 127 160 138 173 43 50 61 82 54 94 -7 12 -92 117 -104 128 -25 24 -238
286 -374 460 -92 118 -171 216 -175 218 -3 1 -27 -15 -51 -35z"/>
<path d="M2475 1337 c-33 -29 -75 -66 -93 -82 l-34 -31 16 -37 c17 -43 31 -61
107 -146 30 -34 59 -61 64 -61 22 0 104 97 140 167 l38 72 -22 33 c-20 28 -76
78 -141 125 -13 9 -26 2 -75 -40z"/>
</g>
</svg>
